<?xml version="1.0" encoding="UTF-8"?>
<svg id="Layer_1" xmlns="http://www.w3.org/2000/svg" version="1.1" viewBox="0 0 799.03 128.63">
  <!-- Generator: Adobe Illustrator 30.5.1, SVG Export Plug-In . SVG Version: 2.1.4 Build 3)  -->
  <defs>
    <style>
      .st0 {
        fill: #fff;
      }

      .st1 {
        fill: #e8581a;
      }
    </style>
  </defs>
  <path class="st1" d="M394.92,106.79c16.31,7.3,36.59,3.93,49.3-10.3l13.46,12.65c-6.31,6.83-13.5,12.53-22.45,15.58-15.09,5.14-31.6,5.14-46.57-.16-22.99-8.13-37.63-29.17-37.65-52.97-.02-26.47,15.4-48.41,41.32-56,23.56-6.9,48.65-1.85,65.44,15.88l-13.82,13.09c-4.74-5.07-9.72-8.6-15.81-11.18-13.7-4.88-28.95-3.39-40.63,5.31-9.32,6.95-14.24,17.17-15.21,28.43-1.44,16.71,6.87,32.62,22.63,39.67h0Z"/>
  <path class="st1" d="M781.97,101.88l11.67,11.49c-12.48,15.35-37.21,18.26-55.16,11.94-9.26-3.26-17.39-8.93-22.73-17.33-9.54-15.02-9.5-34.48.12-49.53,11.66-18.23,34.33-23.84,54.61-17.55,20.6,6.39,30.72,26.64,28.17,48.2l-69.25.02c.82,7.94,5.43,13.98,11.96,17.98,13.06,6.72,29.08,5.51,40.62-5.21h0ZM779.56,76.48c-1.22-13.23-11.51-21.51-23.85-21.96-13.27-.48-24.69,7.9-26.5,21.92l50.35.03h0Z"/>
  <polygon class="st1" points="683.42 41.05 703.77 41.04 666.36 128.36 644.88 128.24 607.54 41.16 628.77 40.92 655.86 105.56 683.42 41.05"/>
  <polygon class="st1" points="488.26 128.61 467.66 128.63 467.74 11.75 488.26 11.69 488.26 128.61"/>
  <g>
    <path class="st0" d="M600.48,61.14c-2.23,21.03-12.66,40.89-32.59,48.04-2.02.72-3.54,3.27-3.76,5.31-.89,7.98-7.01,13.86-14.69,13.95-7.95.1-14.62-5.63-15.42-13.8-.23-2.4-1.9-4.74-4.19-5.58-19.4-7.16-29.96-27.26-31.99-47.87,10.84,4.74,20.04,11.15,28.26,18.97,5.05,4.81,8.49,10.02,12.47,16.28.53-12.67,3.55-23.66,10.49-33.82l3.35,5.52c5.23,8.62,6.8,17.85,7.38,28.32,4.33-6.82,7.76-12.06,13-16.92,8.13-7.56,17.09-13.56,27.7-18.4h0Z"/>
    <path class="st0" d="M548.99,48.89c-7.39,8.22-11.92,17.33-15.55,27.1-5.76-5.56-11.13-10-17.41-14.24.23-10.64,5.11-20.17,11.75-28.43,6.31-6.91,13.31-12.52,21.31-17.65,17.17,11.06,32.22,25.31,32.98,46.26-6.42,4.15-11.76,8.39-17.34,13.87-3.76-9.54-8.41-18.82-15.73-26.92h0Z"/>
  </g>
  <polygon class="st0" points="102.15 128.49 80.57 128.62 80.58 78.12 21.59 78.11 21.58 128.63 0 128.58 0 11.71 21.59 11.69 21.58 58.84 80.58 58.84 80.56 11.71 102.15 11.7 102.15 128.49"/>
  <path class="st0" d="M271.36,106.41c12.25,7.18,29.97,5.33,40.5-5.42l12.21,12.19c-6.27,7.25-14.71,12.33-24.42,14.16-9.25,1.74-18.58,1.9-27.71-.6-10.34-2.83-19.59-8.49-25.67-17.44-10.47-15.4-10.61-35.75-.73-51.46,11.22-17.85,33.78-23.43,53.46-17.9,21.87,6.13,32.32,26.99,29.75,49.44h-68.91c.91,7.44,5.24,13.36,11.53,17.04h0ZM308.87,75.82c-1.95-14.17-13.33-21.72-25.84-21.02-12,.44-22.05,8.89-23.52,21.14l49.36-.1h0Z"/>
  <path class="st0" d="M198.62,128.43l-21.09.13-.02-89.19,19.95-.12.11,12.61c7.5-11.03,19.12-13.92,31.68-13.77l-.02,20.25c-6.03-.61-11.95-.77-17.3,1.9-8,4-12.12,12.01-13.27,20.93l-.06,47.26h0Z"/>
  <g>
    <polygon class="st0" points="151.12 128.61 130.19 128.63 130.17 39.75 151.08 39.65 151.12 128.61"/>
    <path class="st0" d="M146.78,24.28c-5.59,2.36-11.9,1.3-16.08-2.83-3.85-3.81-4.43-9.74-2.15-14.32C130.89,2.47,135.79-.04,141.21,0c6.12.04,11.67,3.89,12.94,9.41,1.43,6.15-1.29,12.3-7.38,14.87h0Z"/>
  </g>
</svg>