<?xml version="1.0" encoding="UTF-8"?>
<svg id="Layer_1" xmlns="http://www.w3.org/2000/svg" version="1.1" viewBox="0 0 993.84 159.99">
  <!-- Generator: Adobe Illustrator 30.5.1, SVG Export Plug-In . SVG Version: 2.1.4 Build 3)  -->
  <defs>
    <style>
      .st0 {
        fill: #fff;
      }

      .st1 {
        fill: #e8581a;
      }
    </style>
  </defs>
  <path class="st1" d="M491.21,132.83c20.29,9.08,45.51,4.89,61.32-12.81l16.74,15.73c-7.85,8.5-16.79,15.59-27.92,19.38-18.77,6.39-39.3,6.39-57.93-.2-28.59-10.11-46.8-36.28-46.83-65.89-.03-32.92,19.16-60.21,51.4-69.65,29.3-8.58,60.51-2.3,81.4,19.75l-17.19,16.28c-5.9-6.3-12.09-10.7-19.67-13.9-17.04-6.07-36.01-4.22-50.54,6.61-11.59,8.64-17.71,21.36-18.92,35.36-1.79,20.79,8.55,40.57,28.15,49.34h0Z"/>
  <path class="st1" d="M972.62,126.72l14.51,14.29c-15.52,19.09-46.28,22.71-68.61,14.85-11.52-4.06-21.63-11.11-28.27-21.56-11.86-18.68-11.81-42.89.15-61.6,14.5-22.67,42.7-29.65,67.92-21.83,25.62,7.95,38.21,33.14,35.04,59.95l-86.13.02c1.02,9.88,6.76,17.39,14.88,22.36,16.25,8.36,36.17,6.85,50.52-6.48h-.01ZM969.62,95.13c-1.52-16.45-14.32-26.75-29.66-27.31-16.5-.6-30.71,9.83-32.96,27.26l62.62.04h0Z"/>
  <polygon class="st1" points="850.04 51.06 875.36 51.04 828.83 159.65 802.11 159.51 755.66 51.19 782.07 50.9 815.76 131.3 850.04 51.06"/>
  <polygon class="st1" points="607.3 159.97 581.68 159.99 581.78 14.62 607.3 14.54 607.3 159.97"/>
  <g>
    <path class="st0" d="M746.88,76.05c-2.77,26.16-15.75,50.86-40.54,59.75-2.51.9-4.4,4.07-4.68,6.61-1.11,9.93-8.72,17.24-18.27,17.35-9.89.12-18.18-7-19.18-17.16-.29-2.98-2.36-5.89-5.21-6.94-24.13-8.9-37.26-33.9-39.79-59.54,13.48,5.89,24.93,13.87,35.15,23.59,6.28,5.98,10.56,12.46,15.51,20.25.66-15.76,4.41-29.43,13.05-42.07l4.17,6.87c6.51,10.72,8.46,22.2,9.18,35.23,5.38-8.48,9.65-15,16.17-21.05,10.11-9.4,21.26-16.86,34.45-22.89h-.01Z"/>
    <path class="st0" d="M682.84,60.81c-9.19,10.23-14.83,21.56-19.34,33.71-7.16-6.92-13.84-12.44-21.66-17.71.29-13.24,6.35-25.09,14.61-35.36,7.85-8.6,16.56-15.57,26.51-21.95,21.36,13.76,40.07,31.48,41.02,57.54-7.98,5.16-14.63,10.43-21.57,17.25-4.68-11.86-10.46-23.41-19.57-33.48h0Z"/>
  </g>
  <polygon class="st0" points="127.05 159.82 100.21 159.98 100.23 97.17 26.85 97.15 26.84 159.99 0 159.93 0 14.57 26.85 14.54 26.84 73.18 100.23 73.18 100.2 14.56 127.05 14.55 127.05 159.82"/>
  <path class="st0" d="M337.52,132.35c15.24,8.93,37.28,6.63,50.37-6.74l15.19,15.16c-7.8,9.02-18.3,15.34-30.38,17.61-11.5,2.16-23.11,2.36-34.46-.75-12.86-3.52-24.36-10.56-31.93-21.69-13.02-19.16-13.2-44.46-.91-64.01,13.95-22.2,42.01-29.14,66.49-22.27,27.2,7.63,40.2,33.57,37,61.5h-85.71c1.13,9.25,6.52,16.62,14.34,21.2h0ZM384.18,94.31c-2.42-17.63-16.58-27.01-32.14-26.15-14.93.55-27.42,11.06-29.26,26.29l61.4-.13h0Z"/>
  <path class="st0" d="M247.05,159.74l-26.23.16-.02-110.93,24.82-.15.14,15.69c9.33-13.72,23.78-17.32,39.41-17.13l-.02,25.19c-7.5-.76-14.86-.96-21.52,2.36-9.95,4.97-15.07,14.94-16.5,26.03l-.07,58.78h-.01Z"/>
  <g>
    <polygon class="st0" points="187.97 159.96 161.93 159.99 161.91 49.44 187.92 49.32 187.97 159.96"/>
    <path class="st0" d="M182.57,30.2c-6.95,2.93-14.8,1.62-20-3.52-4.79-4.74-5.51-12.12-2.67-17.81C162.8,3.07,168.9-.05,175.64,0c7.61.05,14.51,4.84,16.1,11.7,1.78,7.65-1.6,15.3-9.18,18.5h0Z"/>
  </g>
</svg>