<?xml version="1.0" encoding="UTF-8"?>
<svg xmlns="http://www.w3.org/2000/svg" version="1.1" viewBox="0 0 995.95 227.92">
  <!-- Generator: Adobe Illustrator 30.5.1, SVG Export Plug-In . SVG Version: 2.1.4 Build 3)  -->
  <defs>
    <style>
      .st0 {
        font-family: Gilroy-Regular, Gilroy-Regular;
        font-size: 48px;
      }

      .st0, .st1 {
        fill: #fff;
      }

      .st2 {
        fill: #e8581a;
      }

      .st3 {
        display: none;
      }
    </style>
  </defs>
  <g id="Layer_2">
    <rect class="st3" x="-.97" y="-386.04" width="1000" height="1000"/>
  </g>
  <g id="Layer_1">
    <g>
      <text class="st0" transform="translate(0 216.4)"><tspan x="0" y="0">Connecting the right people, right now.</tspan></text>
      <path class="st2" d="M493.32,132.83c20.29,9.08,45.51,4.89,61.32-12.81l16.74,15.73c-7.85,8.5-16.79,15.59-27.92,19.38-18.77,6.39-39.3,6.39-57.93-.2-28.59-10.11-46.8-36.28-46.83-65.89-.03-32.92,19.16-60.21,51.4-69.65,29.3-8.58,60.51-2.3,81.4,19.75l-17.19,16.28c-5.9-6.3-12.09-10.7-19.67-13.9-17.04-6.07-36.01-4.22-50.54,6.61-11.59,8.64-17.71,21.36-18.92,35.36-1.79,20.79,8.55,40.57,28.15,49.34h0Z"/>
      <path class="st2" d="M974.73,126.72l14.51,14.29c-15.52,19.09-46.28,22.71-68.61,14.85-11.52-4.06-21.63-11.11-28.27-21.56-11.86-18.68-11.81-42.89.15-61.6,14.5-22.67,42.7-29.65,67.92-21.83,25.62,7.95,38.21,33.14,35.04,59.95l-86.13.02c1.02,9.88,6.76,17.39,14.88,22.36,16.25,8.36,36.17,6.85,50.52-6.48h-.01ZM971.73,95.13c-1.52-16.45-14.32-26.75-29.66-27.31-16.5-.6-30.71,9.83-32.96,27.26l62.62.04h0Z"/>
      <polygon class="st2" points="852.15 51.06 877.47 51.04 830.94 159.65 804.22 159.51 757.77 51.19 784.18 50.9 817.87 131.3 852.15 51.06"/>
      <polygon class="st2" points="609.41 159.97 583.79 159.99 583.89 14.62 609.41 14.54 609.41 159.97"/>
      <g>
        <path class="st1" d="M748.99,76.05c-2.77,26.16-15.75,50.86-40.54,59.75-2.51.9-4.4,4.07-4.68,6.61-1.11,9.93-8.72,17.24-18.27,17.35-9.89.12-18.18-7-19.18-17.16-.29-2.98-2.36-5.89-5.21-6.94-24.13-8.9-37.26-33.9-39.79-59.54,13.48,5.89,24.93,13.87,35.15,23.59,6.28,5.98,10.56,12.46,15.51,20.25.66-15.76,4.41-29.43,13.05-42.07l4.17,6.87c6.51,10.72,8.46,22.2,9.18,35.23,5.38-8.48,9.65-15,16.17-21.05,10.11-9.4,21.26-16.86,34.45-22.89h-.01Z"/>
        <path class="st1" d="M684.95,60.81c-9.19,10.23-14.83,21.56-19.34,33.71-7.16-6.92-13.84-12.44-21.66-17.71.29-13.24,6.35-25.09,14.61-35.36,7.85-8.6,16.56-15.57,26.51-21.95,21.36,13.76,40.07,31.48,41.02,57.54-7.98,5.16-14.63,10.43-21.57,17.25-4.68-11.86-10.46-23.41-19.57-33.48h0Z"/>
      </g>
      <polygon class="st1" points="129.16 159.82 102.32 159.98 102.34 97.17 28.96 97.15 28.95 159.99 2.11 159.93 2.12 14.57 28.96 14.54 28.95 73.18 102.34 73.18 102.31 14.56 129.16 14.55 129.16 159.82"/>
      <path class="st1" d="M339.63,132.35c15.24,8.93,37.28,6.63,50.37-6.74l15.19,15.16c-7.8,9.02-18.3,15.34-30.38,17.61-11.5,2.16-23.11,2.36-34.46-.75-12.86-3.52-24.36-10.56-31.93-21.69-13.02-19.16-13.2-44.46-.91-64.01,13.95-22.2,42.01-29.14,66.49-22.27,27.2,7.63,40.2,33.57,37,61.5h-85.71c1.13,9.25,6.52,16.62,14.34,21.2h0ZM386.29,94.31c-2.42-17.63-16.58-27.01-32.14-26.15-14.93.55-27.42,11.06-29.26,26.29l61.4-.13h0Z"/>
      <path class="st1" d="M249.16,159.74l-26.23.16-.02-110.93,24.82-.15.14,15.69c9.33-13.72,23.78-17.32,39.41-17.13l-.02,25.19c-7.5-.76-14.86-.96-21.52,2.36-9.95,4.97-15.07,14.94-16.5,26.03l-.07,58.78h-.01Z"/>
      <g>
        <polygon class="st1" points="190.08 159.96 164.04 159.99 164.02 49.44 190.03 49.32 190.08 159.96"/>
        <path class="st1" d="M184.68,30.2c-6.95,2.93-14.8,1.62-20-3.52-4.79-4.74-5.51-12.12-2.67-17.81C164.91,3.07,171.01-.05,177.75,0c7.61.05,14.51,4.84,16.1,11.7,1.78,7.65-1.6,15.3-9.18,18.5h0Z"/>
      </g>
    </g>
  </g>
</svg>